<svg width="1920" height="1348" viewBox="0 0 1920 1348" fill="none" xmlns="http://www.w3.org/2000/svg">
<path opacity="0.3" d="M40.6667 -19V-18.2099M40.6667 -18.2099L40.6667 57.635M40.6667 -18.2099L120.667 -18.2099M40.6667 -18.2099L0 -18.2099M40.6667 57.635V133.48M40.6667 57.635L120.667 57.635M40.6667 57.635H0M40.6667 133.48L40.6667 209.325M40.6667 133.48L120.667 133.48M40.6667 133.48H0M40.6667 209.325V285.17M40.6667 209.325H120.667M40.6667 209.325H0M40.6667 285.17L40.6667 361.015M40.6667 285.17H120.667M40.6667 285.17H0M40.6667 361.015V436.86M40.6667 361.015H120.667M40.6667 361.015H0M40.6667 436.86L40.6667 512.705M40.6667 436.86H120.667M40.6667 436.86H0M40.6667 512.705V588.55M40.6667 512.705H120.667M40.6667 512.705H0M40.6667 588.55L40.6666 664.395M40.6667 588.55H120.667M40.6667 588.55H0M40.6666 664.395L40.6666 740.24M40.6666 664.395H120.667M40.6666 664.395H0M40.6666 740.24V816.085M40.6666 740.24H120.667M40.6666 740.24H0M40.6666 816.085L40.6666 891.93M40.6666 816.085H120.667M40.6666 816.085H0M40.6666 891.93V967.775M40.6666 891.93H120.667M40.6666 891.93H0M40.6666 967.775L40.6666 1043.62M40.6666 967.775H120.667M40.6666 967.775H0M40.6666 1043.62V1119.46M40.6666 1043.62H120.667M40.6666 1043.62H0M40.6666 1119.46L40.6666 1195.31M40.6666 1119.46H120.667M40.6666 1119.46H0M40.6666 1195.31V1271.15M40.6666 1195.31H120.667M40.6666 1195.31H0M40.6666 1271.15L40.6666 1346.21M40.6666 1271.15H120.667M40.6666 1271.15H0M200.667 -19V-18.2099M200.667 -18.2099V57.635M200.667 -18.2099L280.667 -18.2099M200.667 -18.2099L120.667 -18.2099M200.667 57.635V133.48M200.667 57.635L280.667 57.6351M200.667 57.635L120.667 57.635M200.667 133.48L200.667 209.325M200.667 133.48L280.667 133.48M200.667 133.48H120.667M200.667 209.325V285.17M200.667 209.325H280.667M200.667 209.325L120.667 209.325M200.667 285.17V361.015M200.667 285.17H280.667M200.667 285.17L120.667 285.17M200.667 361.015V436.86M200.667 361.015H280.667M200.667 361.015H120.667M200.667 436.86V512.705M200.667 436.86H280.667M200.667 436.86H120.667M200.667 512.705V588.55M200.667 512.705H280.667M200.667 512.705H120.667M200.667 588.55L200.667 664.395M200.667 588.55H280.667M200.667 588.55H120.667M200.667 664.395V740.24M200.667 664.395H280.667M200.667 664.395H120.667M200.667 740.24V816.085M200.667 740.24H280.667M200.667 740.24H120.667M200.667 816.085V891.93M200.667 816.085H280.667M200.667 816.085H120.667M200.667 891.93V967.775M200.667 891.93H280.667M200.667 891.93H120.667M200.667 967.775V1043.62M200.667 967.775H280.667M200.667 967.775H120.667M200.667 1043.62L200.667 1119.46M200.667 1043.62H280.667M200.667 1043.62H120.667M200.667 1119.46V1195.31M200.667 1119.46H280.667M200.667 1119.46H120.667M200.667 1195.31V1271.15M200.667 1195.31H280.667M200.667 1195.31H120.667M200.667 1271.15V1346.21M200.667 1271.15H280.667M200.667 1271.15H120.667M360.667 -19V-18.2099M360.667 -18.2099V57.6351M360.667 -18.2099L440.667 -18.2099M360.667 -18.2099L280.667 -18.2099M360.667 57.6351V133.48M360.667 57.6351L440.667 57.6351M360.667 57.6351L280.667 57.6351M360.667 133.48V209.325M360.667 133.48L440.667 133.48M360.667 133.48H280.667M360.667 209.325V285.17M360.667 209.325H440.667M360.667 209.325H280.667M360.667 285.17L360.667 361.015M360.667 285.17H440.667M360.667 285.17H280.667M360.667 361.015V436.86M360.667 361.015H440.667M360.667 361.015H280.667M360.667 436.86V512.705M360.667 436.86H440.667M360.667 436.86L280.667 436.86M360.667 512.705V588.55M360.667 512.705H440.667M360.667 512.705H280.667M360.667 588.55V664.395M360.667 588.55H440.667M360.667 588.55L280.667 588.55M360.667 664.395V740.24M360.667 664.395H440.667M360.667 664.395H280.667M360.667 740.24V816.085M360.667 740.24H440.667M360.667 740.24H280.667M360.667 816.085V891.93M360.667 816.085H440.667M360.667 816.085H280.667M360.667 891.93V967.775M360.667 891.93H440.667M360.667 891.93H280.667M360.667 967.775L360.667 1043.62M360.667 967.775H440.667M360.667 967.775H280.667M360.667 1043.62V1119.46M360.667 1043.62H440.667M360.667 1043.62H280.667M360.667 1119.46V1195.31M360.667 1119.46H440.667M360.667 1119.46H280.667M360.667 1195.31V1271.15M360.667 1195.31H440.667M360.667 1195.31H280.667M360.667 1271.15V1346.21M360.667 1271.15H440.667M360.667 1271.15H280.667M1920 -18.2098L1880.67 -18.2098M1880.67 -18.2098L1800.67 -18.2099M1880.67 -18.2098V-19M1880.67 -18.2098V57.6351M1800.67 -18.2099L1720.67 -18.2099M1800.67 -18.2099V-19M1800.67 -18.2099V57.6351M1720.67 -18.2099L1640.67 -18.2099M1720.67 -18.2099V-19M1720.67 -18.2099V57.6351M1640.67 -18.2099L1560.67 -18.2099M1640.67 -18.2099V-19M1640.67 -18.2099V57.6351M1560.67 -18.2099L1480.67 -18.2099M1560.67 -18.2099V-19M1560.67 -18.2099V57.6351M1480.67 -18.2099L1400.67 -18.2099M1480.67 -18.2099V-19M1480.67 -18.2099V57.6351M1400.67 -18.2099L1320.67 -18.2099M1400.67 -18.2099V-19M1400.67 -18.2099V57.6351M1320.67 -18.2099L1240.67 -18.2099M1320.67 -18.2099V-19M1320.67 -18.2099V57.6351M1240.67 -18.2099L1160.67 -18.2099M1240.67 -18.2099V-19M1240.67 -18.2099V57.6351M1160.67 -18.2099L1080.67 -18.2099M1160.67 -18.2099V-19M1160.67 -18.2099V57.6351M1080.67 -18.2099L1000.67 -18.2099M1080.67 -18.2099V-19M1080.67 -18.2099V57.6351M1000.67 -18.2099L920.667 -18.2099M1000.67 -18.2099V-19M1000.67 -18.2099V57.6351M920.667 -18.2099L840.667 -18.2099M920.667 -18.2099V-19M920.667 -18.2099V57.6351M840.667 -18.2099L760.667 -18.2099M840.667 -18.2099V-19M840.667 -18.2099V57.6351M760.667 -18.2099L680.667 -18.2099M760.667 -18.2099V-19M760.667 -18.2099V57.6351M680.667 -18.2099L600.667 -18.2099M680.667 -18.2099V-19M680.667 -18.2099V57.6351M600.667 -18.2099L520.667 -18.2099M600.667 -18.2099V-19M600.667 -18.2099V57.6351M520.667 -18.2099L440.667 -18.2099M520.667 -18.2099V-19M520.667 -18.2099V57.6351M440.667 -18.2099V-19M440.667 -18.2099V57.6351M280.667 -18.2099V-19M280.667 -18.2099V57.6351M120.667 -18.2099V-19M120.667 -18.2099V57.635M520.667 57.6351V133.48M520.667 57.6351L600.667 57.6351M520.667 57.6351L440.667 57.6351M520.667 133.48V209.325M520.667 133.48H600.667M520.667 133.48H440.667M520.667 209.325V285.17M520.667 209.325L600.667 209.325M520.667 209.325H440.667M520.667 285.17V361.015M520.667 285.17L600.667 285.17M520.667 285.17H440.667M520.667 361.015V436.86M520.667 361.015H600.667M520.667 361.015L440.667 361.015M520.667 436.86V512.705M520.667 436.86H600.667M520.667 436.86H440.667M520.667 512.705V588.55M520.667 512.705H600.667M520.667 512.705L440.667 512.705M520.667 588.55L520.667 664.395M520.667 588.55H600.667M520.667 588.55H440.667M520.667 664.395V740.24M520.667 664.395H600.667M520.667 664.395H440.667M520.667 740.24V816.085M520.667 740.24H600.667M520.667 740.24H440.667M520.667 816.085V891.93M520.667 816.085H600.667M520.667 816.085H440.667M520.667 891.93V967.775M520.667 891.93H600.667M520.667 891.93H440.667M520.667 967.775V1043.62M520.667 967.775H600.667M520.667 967.775H440.667M520.667 1043.62V1119.46M520.667 1043.62H600.667M520.667 1043.62L440.667 1043.62M520.667 1119.46V1195.31M520.667 1119.46H600.667M520.667 1119.46H440.667M520.667 1195.31V1271.15M520.667 1195.31H600.667M520.667 1195.31H440.667M520.667 1271.15V1346.21M520.667 1271.15H600.667M520.667 1271.15H440.667M1920 133.48H1880.67M1880.67 133.48L1800.67 133.48M1880.67 133.48V57.6351M1880.67 133.48V209.325M1800.67 133.48H1720.67M1800.67 133.48V57.6351M1800.67 133.48V209.325M1720.67 133.48L1640.67 133.48M1720.67 133.48V57.6351M1720.67 133.48V209.325M1640.67 133.48H1560.67M1640.67 133.48V57.6351M1640.67 133.48V209.325M1560.67 133.48L1480.67 133.48M1560.67 133.48V57.6351M1560.67 133.48V209.325M1480.67 133.48H1400.67M1480.67 133.48V57.6351M1480.67 133.48V209.325M1400.67 133.48H1320.67M1400.67 133.48V57.6351M1400.67 133.48V209.325M1320.67 133.48L1240.67 133.48M1320.67 133.48V57.6351M1320.67 133.48V209.325M1240.67 133.48H1160.67M1240.67 133.48V57.6351M1240.67 133.48V209.325M1160.67 133.48L1080.67 133.48M1160.67 133.48V57.6351M1160.67 133.48V209.325M1080.67 133.48H1000.67M1080.67 133.48V57.6351M1080.67 133.48V209.325M1000.67 133.48L920.667 133.48M1000.67 133.48V57.6351M1000.67 133.48V209.325M920.667 133.48H840.667M920.667 133.48V57.6351M920.667 133.48V209.325M840.667 133.48L760.667 133.48M840.667 133.48V57.6351M840.667 133.48V209.325M760.667 133.48H680.667M760.667 133.48V57.6351M760.667 133.48V209.325M680.667 133.48L600.667 133.48M680.667 133.48V57.6351M680.667 133.48V209.325M600.667 133.48V57.6351M600.667 133.48V209.325M440.667 133.48V57.6351M440.667 133.48V209.325M280.667 133.48V57.6351M280.667 133.48V209.325M120.667 133.48L120.667 57.635M120.667 133.48V209.325M680.667 57.6351L760.667 57.6351M680.667 57.6351L600.667 57.6351M680.667 209.325V285.17M680.667 209.325H760.667M680.667 209.325H600.667M680.667 285.17V361.015M680.667 285.17H760.667M680.667 285.17H600.667M680.667 361.015V436.86M680.667 361.015H760.667M680.667 361.015H600.667M680.667 436.86V512.705M680.667 436.86H760.667M680.667 436.86H600.667M680.667 512.705V588.55M680.667 512.705H760.667M680.667 512.705H600.667M680.667 588.55L680.667 664.395M680.667 588.55H760.667M680.667 588.55H600.667M680.667 664.395V740.24M680.667 664.395H760.667M680.667 664.395H600.667M680.667 740.24V816.085M680.667 740.24H760.667M680.667 740.24H600.667M680.667 816.085V891.93M680.667 816.085H760.667M680.667 816.085H600.667M680.667 891.93V967.775M680.667 891.93H760.667M680.667 891.93H600.667M680.667 967.775V1043.62M680.667 967.775H760.667M680.667 967.775H600.667M680.667 1043.62V1119.46M680.667 1043.62H760.667M680.667 1043.62H600.667M680.667 1119.46V1195.31M680.667 1119.46H760.667M680.667 1119.46H600.667M680.667 1195.31V1271.15M680.667 1195.31H760.667M680.667 1195.31H600.667M680.667 1271.15V1346.21M680.667 1271.15H760.667M680.667 1271.15H600.667M1920 285.17H1880.67M1880.67 285.17H1800.67M1880.67 285.17V209.325M1880.67 285.17V361.015M1800.67 285.17L1720.67 285.17M1800.67 285.17V209.325M1800.67 285.17V361.015M1720.67 285.17H1640.67M1720.67 285.17V209.325M1720.67 285.17V361.015M1640.67 285.17H1560.67M1640.67 285.17V209.325M1640.67 285.17V361.015M1560.67 285.17H1480.67M1560.67 285.17V209.325M1560.67 285.17V361.015M1480.67 285.17H1400.67M1480.67 285.17V209.325M1480.67 285.17V361.015M1400.67 285.17L1320.67 285.17M1400.67 285.17V209.325M1400.67 285.17V361.015M1320.67 285.17H1240.67M1320.67 285.17V209.325M1320.67 285.17V361.015M1240.67 285.17H1160.67M1240.67 285.17V209.325M1240.67 285.17V361.015M1160.67 285.17H1080.67M1160.67 285.17V209.325M1160.67 285.17V361.015M1080.67 285.17H1000.67M1080.67 285.17V209.325M1080.67 285.17V361.015M1000.67 285.17L920.667 285.17M1000.67 285.17V209.325M1000.67 285.17V361.015M920.667 285.17H840.667M920.667 285.17V209.325M920.667 285.17V361.015M840.667 285.17H760.667M840.667 285.17V209.325M840.667 285.17V361.015M760.667 285.17V209.325M760.667 285.17V361.015M600.667 285.17V209.325M600.667 285.17V361.015M440.667 285.17V209.325M440.667 285.17L440.667 361.015M280.667 285.17V209.325M280.667 285.17L280.667 361.015M120.667 285.17V209.325M120.667 285.17L120.667 361.015M840.667 57.6351L920.667 57.6351M840.667 57.6351L760.667 57.6351M840.667 209.325H920.667M840.667 209.325H760.667M840.667 361.015V436.86M840.667 361.015H920.667M840.667 361.015H760.667M840.667 436.86V512.705M840.667 436.86H920.667M840.667 436.86H760.667M840.667 512.705V588.55M840.667 512.705H920.667M840.667 512.705H760.667M840.667 588.55V664.395M840.667 588.55H920.667M840.667 588.55H760.667M840.667 664.395V740.24M840.667 664.395H920.667M840.667 664.395H760.667M840.667 740.24V816.085M840.667 740.24H920.667M840.667 740.24H760.667M840.667 816.085V891.93M840.667 816.085H920.667M840.667 816.085H760.667M840.667 891.93V967.775M840.667 891.93H920.667M840.667 891.93H760.667M840.667 967.775V1043.62M840.667 967.775H920.667M840.667 967.775H760.667M840.667 1043.62V1119.46M840.667 1043.62H920.667M840.667 1043.62H760.667M840.667 1119.46V1195.31M840.667 1119.46H920.667M840.667 1119.46H760.667M840.667 1195.31V1271.15M840.667 1195.31H920.667M840.667 1195.31H760.667M840.667 1271.15V1346.21M840.667 1271.15H920.667M840.667 1271.15H760.667M1920 436.86H1880.67M1880.67 436.86H1800.67M1880.67 436.86V361.015M1880.67 436.86V512.705M1800.67 436.86H1720.67M1800.67 436.86V361.015M1800.67 436.86V512.705M1720.67 436.86H1640.67M1720.67 436.86V361.015M1720.67 436.86V512.705M1640.67 436.86L1560.67 436.86M1640.67 436.86V361.015M1640.67 436.86V512.705M1560.67 436.86H1480.67M1560.67 436.86V361.015M1560.67 436.86V512.705M1480.67 436.86H1400.67M1480.67 436.86V361.015M1480.67 436.86V512.705M1400.67 436.86H1320.67M1400.67 436.86V361.015M1400.67 436.86V512.705M1320.67 436.86H1240.67M1320.67 436.86V361.015M1320.67 436.86V512.705M1240.67 436.86H1160.67M1240.67 436.86V361.015M1240.67 436.86V512.705M1160.67 436.86H1080.67M1160.67 436.86V361.015M1160.67 436.86V512.705M1080.67 436.86H1000.67M1080.67 436.86V361.015M1080.67 436.86V512.705M1000.67 436.86L920.667 436.86M1000.67 436.86V361.015M1000.67 436.86V512.705M920.667 436.86V361.015M920.667 436.86V512.705M760.667 436.86V361.015M760.667 436.86V512.705M600.667 436.86V361.015M600.667 436.86V512.705M440.667 436.86V361.015M440.667 436.86V512.705M280.667 436.86V361.015M280.667 436.86V512.705M120.667 436.86V361.015M120.667 436.86V512.705M1000.67 57.6351L1080.67 57.6351M1000.67 57.6351H920.667M1000.67 209.325H1080.67M1000.67 209.325L920.667 209.325M1000.67 361.015H1080.67M1000.67 361.015H920.667M1000.67 512.705V588.55M1000.67 512.705H1080.67M1000.67 512.705H920.667M1000.67 588.55V664.395M1000.67 588.55H1080.67M1000.67 588.55L920.667 588.55M1000.67 664.395V740.24M1000.67 664.395H1080.67M1000.67 664.395L920.667 664.395M1000.67 740.24V816.085M1000.67 740.24H1080.67M1000.67 740.24L920.667 740.24M1000.67 816.085V891.93M1000.67 816.085H1080.67M1000.67 816.085L920.667 816.085M1000.67 891.93V967.775M1000.67 891.93H1080.67M1000.67 891.93L920.667 891.93M1000.67 967.775V1043.62M1000.67 967.775H1080.67M1000.67 967.775L920.667 967.775M1000.67 1043.62V1119.47M1000.67 1043.62H1080.67M1000.67 1043.62H920.667M1000.67 1119.47V1195.31M1000.67 1119.47H1080.67M1000.67 1119.47L920.667 1119.46M1000.67 1195.31V1271.16M1000.67 1195.31H1080.67M1000.67 1195.31L920.667 1195.31M1000.67 1271.16V1346.21M1000.67 1271.16H1080.67M1000.67 1271.16L920.667 1271.15M1920 588.55H1880.67M1880.67 588.55H1800.67M1880.67 588.55V512.705M1880.67 588.55V664.395M1800.67 588.55H1720.67M1800.67 588.55V512.705M1800.67 588.55V664.395M1720.67 588.55H1640.67M1720.67 588.55V512.705M1720.67 588.55V664.395M1640.67 588.55L1560.67 588.55M1640.67 588.55V512.705M1640.67 588.55V664.395M1560.67 588.55H1480.67M1560.67 588.55V512.705M1560.67 588.55V664.395M1480.67 588.55H1400.67M1480.67 588.55V512.705M1480.67 588.55V664.395M1400.67 588.55H1320.67M1400.67 588.55V512.705M1400.67 588.55V664.395M1320.67 588.55H1240.67M1320.67 588.55V512.705M1320.67 588.55V664.395M1240.67 588.55H1160.67M1240.67 588.55V512.705M1240.67 588.55V664.395M1160.67 588.55H1080.67M1160.67 588.55V512.705M1160.67 588.55V664.395M1080.67 588.55V512.705M1080.67 588.55V664.395M920.667 588.55V512.705M920.667 588.55V664.395M760.667 588.55V512.705M760.667 588.55V664.395M600.667 588.55V512.705M600.667 588.55L600.667 664.395M440.667 588.55V512.705M440.667 588.55V664.395M280.667 588.55V512.705M280.667 588.55V664.395M120.667 588.55L120.667 512.705M120.667 588.55V664.395M1160.67 57.6351L1240.67 57.6351M1160.67 57.6351L1080.67 57.6351M1160.67 209.325H1240.67M1160.67 209.325H1080.67M1160.67 361.015H1240.67M1160.67 361.015H1080.67M1160.67 512.705H1240.67M1160.67 512.705H1080.67M1160.67 664.395V740.24M1160.67 664.395H1240.67M1160.67 664.395H1080.67M1160.67 740.24V816.085M1160.67 740.24H1240.67M1160.67 740.24H1080.67M1160.67 816.085V891.93M1160.67 816.085H1240.67M1160.67 816.085H1080.67M1160.67 891.93V967.775M1160.67 891.93H1240.67M1160.67 891.93H1080.67M1160.67 967.775V1043.62M1160.67 967.775H1240.67M1160.67 967.775H1080.67M1160.67 1043.62V1119.47M1160.67 1043.62H1240.67M1160.67 1043.62H1080.67M1160.67 1119.47V1195.31M1160.67 1119.47H1240.67M1160.67 1119.47H1080.67M1160.67 1195.31V1271.16M1160.67 1195.31H1240.67M1160.67 1195.31H1080.67M1160.67 1271.16V1346.21M1160.67 1271.16H1240.67M1160.67 1271.16H1080.67M1920 740.24H1880.67M1880.67 740.24H1800.67M1880.67 740.24V664.395M1880.67 740.24V816.085M1800.67 740.24H1720.67M1800.67 740.24V664.395M1800.67 740.24V816.085M1720.67 740.24H1640.67M1720.67 740.24V664.395M1720.67 740.24V816.085M1640.67 740.24H1560.67M1640.67 740.24V664.395M1640.67 740.24V816.085M1560.67 740.24H1480.67M1560.67 740.24V664.395M1560.67 740.24V816.085M1480.67 740.24H1400.67M1480.67 740.24V664.395M1480.67 740.24V816.085M1400.67 740.24H1320.67M1400.67 740.24V664.395M1400.67 740.24V816.085M1320.67 740.24H1240.67M1320.67 740.24V664.395M1320.67 740.24V816.085M1240.67 740.24V664.395M1240.67 740.24V816.085M1080.67 740.24V664.395M1080.67 740.24V816.085M920.667 740.24V664.395M920.667 740.24V816.085M760.667 740.24V664.395M760.667 740.24V816.085M600.667 740.24V664.395M600.667 740.24V816.085M440.667 740.24V664.395M440.667 740.24V816.085M280.667 740.24V664.395M280.667 740.24V816.085M120.667 740.24V664.395M120.667 740.24L120.667 816.085M1320.67 57.6351L1400.67 57.6351M1320.67 57.6351L1240.67 57.6351M1320.67 209.325L1400.67 209.325M1320.67 209.325H1240.67M1320.67 361.015H1400.67M1320.67 361.015H1240.67M1320.67 512.705H1400.67M1320.67 512.705H1240.67M1320.67 664.395H1400.67M1320.67 664.395H1240.67M1320.67 816.085V891.93M1320.67 816.085H1400.67M1320.67 816.085H1240.67M1320.67 891.93V967.775M1320.67 891.93H1400.67M1320.67 891.93H1240.67M1320.67 967.775V1043.62M1320.67 967.775H1400.67M1320.67 967.775H1240.67M1320.67 1043.62V1119.47M1320.67 1043.62H1400.67M1320.67 1043.62H1240.67M1320.67 1119.47V1195.31M1320.67 1119.47H1400.67M1320.67 1119.47H1240.67M1320.67 1195.31V1271.16M1320.67 1195.31H1400.67M1320.67 1195.31H1240.67M1320.67 1271.16V1346.21M1320.67 1271.16H1400.67M1320.67 1271.16H1240.67M1920 891.93H1880.67M1880.67 891.93H1800.67M1880.67 891.93V816.085M1880.67 891.93V967.775M1800.67 891.93H1720.67M1800.67 891.93V816.085M1800.67 891.93V967.775M1720.67 891.93H1640.67M1720.67 891.93V816.085M1720.67 891.93V967.775M1640.67 891.93H1560.67M1640.67 891.93V816.085M1640.67 891.93V967.775M1560.67 891.93H1480.67M1560.67 891.93V816.085M1560.67 891.93V967.775M1480.67 891.93H1400.67M1480.67 891.93V816.085M1480.67 891.93V967.775M1400.67 891.93V816.085M1400.67 891.93V967.775M1240.67 891.93V816.085M1240.67 891.93V967.775M1080.67 891.93V816.085M1080.67 891.93V967.775M920.667 891.93V816.085M920.667 891.93V967.775M760.667 891.93V816.085M760.667 891.93V967.775M600.667 891.93V816.085M600.667 891.93V967.775M440.667 891.93V816.085M440.667 891.93V967.775M280.667 891.93V816.085M280.667 891.93V967.775M120.667 891.93V816.085M120.667 891.93V967.775M1720.67 57.6351L1800.67 57.6351M1720.67 57.6351L1640.67 57.6351M1720.67 209.325L1800.67 209.325M1720.67 209.325H1640.67M1720.67 361.015H1800.67M1720.67 361.015H1640.67M1720.67 512.705H1800.67M1720.67 512.705H1640.67M1720.67 664.395H1800.67M1720.67 664.395H1640.67M1720.67 816.085H1800.67M1720.67 816.085H1640.67M1720.67 967.775V1043.62M1720.67 967.775H1800.67M1720.67 967.775H1640.67M1720.67 1043.62V1119.47M1720.67 1043.62H1800.67M1720.67 1043.62H1640.67M1720.67 1119.47V1195.31M1720.67 1119.47H1800.67M1720.67 1119.47H1640.67M1720.67 1195.31V1271.16M1720.67 1195.31H1800.67M1720.67 1195.31H1640.67M1720.67 1271.16V1346.21M1720.67 1271.16H1800.67M1720.67 1271.16H1640.67M1920 1271.16H1880.67M1880.67 1271.16H1800.67M1880.67 1271.16V1195.31M1880.67 1271.16V1346.21M1800.67 1271.16V1195.31M1800.67 1271.16V1346.21M1640.67 1271.16H1560.67M1640.67 1271.16V1195.31M1640.67 1271.16V1346.21M1560.67 1271.16H1480.67M1560.67 1271.16V1195.31M1560.67 1271.16V1346.21M1480.67 1271.16H1400.67M1480.67 1271.16V1195.31M1480.67 1271.16V1346.21M1400.67 1271.16V1195.31M1400.67 1271.16V1346.21M1240.67 1271.16V1195.31M1240.67 1271.16V1346.21M1080.67 1271.16V1195.31M1080.67 1271.16V1346.21M920.667 1271.15V1195.31M920.667 1271.15V1346.21M760.667 1271.15V1195.31M760.667 1271.15V1346.21M600.667 1271.15V1195.31M600.667 1271.15V1346.21M440.667 1271.15V1195.31M440.667 1271.15V1346.21M280.667 1271.15V1195.31M280.667 1271.15V1346.21M120.667 1271.15L120.667 1195.31M120.667 1271.15V1346.21M1480.67 57.6351L1560.67 57.6351M1480.67 57.6351L1400.67 57.6351M1480.67 209.325H1560.67M1480.67 209.325H1400.67M1480.67 361.015H1560.67M1480.67 361.015L1400.67 361.015M1480.67 512.705H1560.67M1480.67 512.705L1400.67 512.705M1480.67 664.395H1560.67M1480.67 664.395H1400.67M1480.67 816.085H1560.67M1480.67 816.085H1400.67M1480.67 967.775V1043.62M1480.67 967.775H1560.67M1480.67 967.775H1400.67M1480.67 1043.62V1119.47M1480.67 1043.62H1560.67M1480.67 1043.62L1400.67 1043.62M1480.67 1119.47V1195.31M1480.67 1119.47H1560.67M1480.67 1119.47H1400.67M1480.67 1195.31H1560.67M1480.67 1195.31H1400.67M1920 1043.62H1880.67M1880.67 1043.62H1800.67M1880.67 1043.62V967.775M1880.67 1043.62V1119.47M1800.67 1043.62V967.775M1800.67 1043.62V1119.47M1640.67 1043.62H1560.67M1640.67 1043.62V967.775M1640.67 1043.62V1119.47M1560.67 1043.62V967.775M1560.67 1043.62V1119.47M1400.67 1043.62V967.775M1400.67 1043.62V1119.47M1240.67 1043.62V967.775M1240.67 1043.62V1119.47M1080.67 1043.62V967.775M1080.67 1043.62V1119.47M920.667 1043.62V967.775M920.667 1043.62V1119.46M760.667 1043.62V967.775M760.667 1043.62V1119.46M600.667 1043.62V967.775M600.667 1043.62V1119.46M440.667 1043.62L440.667 967.775M440.667 1043.62V1119.46M280.667 1043.62L280.667 967.775M280.667 1043.62V1119.46M120.667 1043.62L120.667 967.775M120.667 1043.62V1119.46M1880.67 57.6351H1920M1880.67 57.6351L1800.67 57.6351M1880.67 209.325H1920M1880.67 209.325H1800.67M1880.67 361.015H1920M1880.67 361.015H1800.67M1880.67 512.705H1920M1880.67 512.705H1800.67M1880.67 664.395H1920M1880.67 664.395H1800.67M1880.67 816.085H1920M1880.67 816.085H1800.67M1880.67 967.775H1920M1880.67 967.775H1800.67M1880.67 1119.47V1195.31M1880.67 1119.47H1920M1880.67 1119.47H1800.67M1880.67 1195.31H1920M1880.67 1195.31H1800.67M120.667 1119.46V1195.31M280.667 1119.46V1195.31M440.667 1119.46V1195.31M1640.67 57.6351L1560.67 57.6351M600.667 1119.46V1195.31M1640.67 209.325H1560.67M760.667 1119.46V1195.31M1640.67 361.015H1560.67M920.667 1119.46V1195.31M1640.67 512.705H1560.67M1080.67 1119.47V1195.31M1640.67 664.395H1560.67M1240.67 1119.47V1195.31M1640.67 816.085H1560.67M1640.67 967.775H1560.67M1640.67 1119.47V1195.31M1640.67 1119.47H1560.67M1640.67 1195.31H1560.67M1800.67 1195.31V1119.47M1560.67 1195.31V1119.47M1400.67 1195.31V1119.47M1920 1347L0 1347" stroke="url(#paint0_radial_3009_1952)"/>
<defs>
<radialGradient id="paint0_radial_3009_1952" cx="0" cy="0" r="1" gradientUnits="userSpaceOnUse" gradientTransform="translate(960 664) rotate(90) scale(1080.03 1518.06)">
<stop stop-color="#7D7D7D"/>
<stop offset="1" stop-color="#171717"/>
</radialGradient>
</defs>
</svg>
